<?xml version="1.0" encoding="UTF-8"?>
<svg version="1.1" xmlns="http://www.w3.org/2000/svg" width="75" height="75">
<path d="M0 0 C24.75 0 49.5 0 75 0 C75 24.75 75 49.5 75 75 C50.25 75 25.5 75 0 75 C0 50.25 0 25.5 0 0 Z " fill="#21B04B" transform="translate(0,0)"/>
<path d="M0 0 C1.98 0.66 3.96 1.32 6 2 C4.58772109 5.84531388 2.79532575 9.1543103 0.625 12.625 C0.28629883 13.16769531 -0.05240234 13.71039063 -0.40136719 14.26953125 C-1.16438998 15.48982896 -1.9294914 16.70882858 -2.69628906 17.92675781 C-4.15522598 20.24685001 -5.60480451 22.5726774 -7.0546875 24.8984375 C-8.11935067 26.59923447 -9.18445319 28.29975649 -10.25 30 C-10.75708496 30.81291504 -11.26416992 31.62583008 -11.78662109 32.46337891 C-12.27469238 33.23858887 -12.76276367 34.01379883 -13.265625 34.8125 C-13.69649414 35.49957031 -14.12736328 36.18664063 -14.57128906 36.89453125 C-16.24492951 39.36094875 -18.13800132 41.67250165 -20 44 C-25.61 40.37 -31.22 36.74 -37 33 C-35 28 -35 28 -33 26 C-32.39671875 26.44472656 -31.7934375 26.88945313 -31.171875 27.34765625 C-29.97304688 28.19650391 -29.97304688 28.19650391 -28.75 29.0625 C-27.96109375 29.63097656 -27.1721875 30.19945313 -26.359375 30.78515625 C-24.14661805 32.19196069 -24.14661805 32.19196069 -22.02563477 31.81762695 C-19.3807335 30.75003935 -18.70116454 29.55714354 -17.23046875 27.1328125 C-16.49050659 25.93470947 -16.49050659 25.93470947 -15.7355957 24.71240234 C-15.22472412 23.85855957 -14.71385254 23.0047168 -14.1875 22.125 C-13.12245605 20.39058802 -12.05735213 18.65621287 -10.9921875 16.921875 C-10.48010742 16.07818359 -9.96802734 15.23449219 -9.44042969 14.36523438 C-7.60071914 11.34436729 -5.71395497 8.35736506 -3.8125 5.375 C-3.28269531 4.53710938 -2.75289062 3.69921875 -2.20703125 2.8359375 C-1 1 -1 1 0 0 Z " fill="#F7F7F7" transform="translate(55,14)"/>
<path d="M0 0 C3.48670834 1.1094072 6.77484237 2.26337666 10 4 C9.4310734 7.82409907 8.36728145 10.40273754 6.26171875 13.6328125 C5.69404785 14.51308105 5.12637695 15.39334961 4.54150391 16.30029297 C3.92968262 17.23244629 3.31786133 18.16459961 2.6875 19.125 C1.41756686 21.08828177 0.14804377 23.05182882 -1.12109375 25.015625 C-1.76546387 26.00755859 -2.40983398 26.99949219 -3.07373047 28.02148438 C-6.04494061 32.61575101 -8.96063281 37.24454745 -11.875 41.875 C-12.87228108 43.45580157 -13.86966537 45.03653803 -14.8671875 46.6171875 C-15.57101563 47.73351563 -16.27484375 48.84984375 -17 50 C-21.08140735 48.54449811 -24.41518224 46.54840996 -28 44.125 C-29.010625 43.44695313 -30.02125 42.76890625 -31.0625 42.0703125 C-33.79899994 40.14166228 -36.41173198 38.12199915 -39 36 C-38.42647107 32.12867972 -36.51295648 29.91827204 -34 27 C-30.53872172 27.40720921 -28.81525903 28.12562386 -25.875 30.125 C-24.92625 30.74375 -23.9775 31.3625 -23 32 C-19.568806 30.85626867 -19.33106337 30.37040384 -17.58203125 27.38671875 C-17.13585449 26.6383374 -16.68967773 25.88995605 -16.22998047 25.11889648 C-15.76221191 24.31653564 -15.29444336 23.5141748 -14.8125 22.6875 C-13.83393616 21.04573809 -12.85345706 19.40511629 -11.87109375 17.765625 C-11.14575439 16.55229492 -11.14575439 16.55229492 -10.40576172 15.31445312 C-2.81192907 2.81192907 -2.81192907 2.81192907 0 0 Z M1 3 C-4.15498586 10.00233574 -8.70369031 17.30458329 -13.17895508 24.75341797 C-13.63036865 25.50252441 -14.08178223 26.25163086 -14.546875 27.0234375 C-14.94745117 27.69294434 -15.34802734 28.36245117 -15.76074219 29.05224609 C-17.07578633 31.11911413 -18.50726197 33.05857457 -20 35 C-25.15464734 34.51675181 -28.81550319 31.81389239 -33 29 C-35.25885324 32.25397508 -35.25885324 32.25397508 -36 36 C-34.38641659 37.32378631 -34.38641659 37.32378631 -32.28125 38.6015625 C-31.13076172 39.33632812 -31.13076172 39.33632812 -29.95703125 40.0859375 C-29.14621094 40.59382813 -28.33539062 41.10171875 -27.5 41.625 C-26.68917969 42.140625 -25.87835938 42.65625 -25.04296875 43.1875 C-23.0325603 44.46470066 -21.01819603 45.73515437 -19 47 C-15.28146556 42.6085879 -12.28775978 37.86987547 -9.25 33 C-8.7235791 32.16001465 -8.1971582 31.3200293 -7.65478516 30.45458984 C-6.59610011 28.76334291 -5.53894645 27.07113629 -4.48339844 25.37792969 C-3.16327218 23.26172992 -1.8366947 21.14976858 -0.5078125 19.0390625 C0.20358484 17.90132906 0.91455768 16.76333003 1.625 15.625 C2.23601563 14.64789063 2.84703125 13.67078125 3.4765625 12.6640625 C4.9087217 10.15962 6.00672437 7.70446336 7 5 C5.02 4.34 3.04 3.68 1 3 Z " fill="#0E1510" transform="translate(54,11)"/>
<path d="M0 0 C3.46127828 0.40720921 5.18474097 1.12562386 8.125 3.125 C9.07375 3.74375 10.0225 4.3625 11 5 C13.99332739 4.0022242 14.94766315 3.2477975 17 1 C17.33 1.99 17.66 2.98 18 4 C16.0625 6.6875 16.0625 6.6875 14 9 C8.97307937 8.54300722 5.85103739 6.00758252 2 3 C0.02 5.97 0.02 5.97 -2 9 C-1.30519531 9.24492188 -0.61039063 9.48984375 0.10546875 9.7421875 C3.46600214 11.20250025 6.28574867 13.06281778 9.3125 15.125 C10.38113281 15.84945312 11.44976563 16.57390625 12.55078125 17.3203125 C13.35902344 17.87460937 14.16726562 18.42890625 15 19 C16.65 18.01 18.3 17.02 20 16 C18.125 20.75 18.125 20.75 17 23 C12.91859265 21.54449811 9.58481776 19.54840996 6 17.125 C4.989375 16.44695313 3.97875 15.76890625 2.9375 15.0703125 C0.20100006 13.14166228 -2.41173198 11.12199915 -5 9 C-4.42647107 5.12867972 -2.51295648 2.91827204 0 0 Z " fill="#080E0A" transform="translate(20,38)"/>
<path d="M0 0 C0.33 0.99 0.66 1.98 1 3 C-0.75 6.1875 -0.75 6.1875 -3 9 C-3.99 9 -4.98 9 -6 9 C-5.33333333 7.66666667 -4.66666667 6.33333333 -4 5 C-3.67 4.278125 -3.34 3.55625 -3 2.8125 C-2 1 -2 1 0 0 Z " fill="#0E1410" transform="translate(42,31)"/>
<path d="M0 0 C0.33 0.99 0.66 1.98 1 3 C-0.28965176 4.37562854 -1.62689293 5.70766393 -3 7 C-3.66 7 -4.32 7 -5 7 C-3.75023244 3.34683329 -3.32901247 2.21934164 0 0 Z " fill="#152018" transform="translate(46,25)"/>
<path d="M0 0 C0.33 0.66 0.66 1.32 1 2 C-0.28062485 3.7074998 -1.61767557 5.37373596 -3 7 C-3.66 7 -4.32 7 -5 7 C-3.75023244 3.34683329 -3.32901247 2.21934164 0 0 Z " fill="#09110C" transform="translate(46,43)"/>
</svg>
